<?xml version="1.0" encoding="utf-8" ?>
<svg
    xmlns="http://www.w3.org/2000/svg"
    xmlns:xlink="http://www.w3.org/1999/xlink"
    width="1024"
    height="1024"
>
	<path
        fill="#CDD3D6"
        transform="scale(2 2)"
        d="M366.125 403.948L94.7746 403.954C91.2172 403.949 87.4768 404.122 83.9509 403.607C68.2724 401.316 59.2533 387.717 59.147 372.531L59.138 138.915C59.141 123.598 62.3786 109.125 80.202 104.929C87.3288 103.25 98.2777 104.027 105.837 104.027L145.983 104.025L417.492 104.024C421.731 104.036 426.326 103.913 430.523 104.522C444.091 106.493 453.381 119.516 453.512 132.74C453.686 150.399 453.461 168.084 453.461 185.746L453.479 368.423C453.478 385.094 449.098 397.93 430.437 403.042C424.5 404.669 411.879 403.952 405.377 403.953L366.125 403.948ZM427.653 171.22C427.633 163.749 428.46 145.335 426.678 139.087C422.79 125.449 410.978 125.999 399.147 125.993L119.895 125.994C110.144 125.984 97.3104 123.686 89.8166 131.31C81.6012 139.668 84.4602 159.773 84.4649 171.22L84.4662 344.395C84.4431 367.603 82.2422 378.905 109.787 379.159L398.847 379.175C430.32 379.179 427.674 371.258 427.649 345.966L427.653 171.22Z"
    />
	<path
        fill="#F9F9FA"
        transform="scale(2 2)"
        d="M84.4649 171.22C84.4602 159.773 81.6012 139.668 89.8166 131.31C97.3104 123.686 110.144 125.984 119.895 125.994L399.147 125.993C410.978 125.999 422.79 125.449 426.678 139.087C428.46 145.335 427.633 163.749 427.653 171.22L427.649 345.966C427.674 371.258 430.32 379.179 398.847 379.175L109.787 379.159C82.2422 378.905 84.4431 367.603 84.4662 344.395L84.4649 171.22ZM123.145 201.167C120.239 201.467 118.164 202.886 117.707 205.852C117.027 210.274 117.004 228.702 117.586 233.42C118.456 240.48 127.02 238.515 131.999 238.504L152.045 238.514C154.689 238.097 155.969 236.936 157.207 234.699C157.319 228.324 157.2 221.939 157.226 215.563C157.259 207.011 159.751 200.899 148.359 201.095C140.014 201.238 131.455 200.626 123.145 201.167ZM203.328 201.167L189.592 201.151C173.571 201.151 176.367 204.04 176.491 217.967C176.647 235.561 172.531 239.102 190.312 238.514L204.212 238.543C208.349 238.546 214.818 239.734 216.15 234.375C217.19 230.193 216.592 214.051 216.483 209.103C216.277 199.816 211.053 200.99 203.328 201.167ZM253.338 201.167C234.211 201.014 236.466 201.312 236.46 220.054C236.454 242.337 236.43 238.443 259.312 238.514C277.078 238.676 276.025 239.587 276.029 223.348C276.035 198.04 278.226 201.304 253.338 201.167ZM376.92 201.167C372.044 201.149 356.581 198.923 355.066 205.316C354.28 208.638 354.719 226.114 354.79 230.755C354.956 241.451 364.453 238.469 372.375 238.514C391.588 238.548 394.676 243.253 394.689 223.04C394.692 217.346 396.238 205.231 391.522 201.167C386.687 200.825 381.769 201.21 376.92 201.167ZM300.525 201.167C297.958 202.187 296.39 203.874 296.133 206.635C295.628 212.055 293.491 235.813 299.519 237.991C301.873 238.841 326.758 238.743 330.923 238.514C338.138 235.999 335.866 208.556 334.713 205.312C332.598 199.361 323.253 201.18 318.34 201.178C312.406 201.175 306.458 201.075 300.525 201.167ZM181.364 259.572C174.335 261.153 176.529 270.308 176.55 275.648C176.64 297.468 173.253 295.98 196.917 295.961C201.862 295.957 207.02 296.263 211.94 295.936C219.715 293.485 216.981 272.725 216.44 265.765C216.141 261.913 214.633 259.763 210.412 259.506C203.307 259.074 188.17 258.975 181.364 259.572ZM242.546 259.572C238.579 259.961 237.06 261.432 236.605 265.333C236.187 268.905 235.873 287.179 236.519 291.071C237.595 297.554 247.386 295.928 251.986 295.92L270.175 295.936C272.888 295.46 274.697 294.054 276.023 291.702L276.047 273.714C276.056 266.247 277.65 259.392 267.503 259.528C259.193 259.64 250.847 259.346 242.546 259.572ZM303.209 259.572C299.773 259.743 296.906 260.358 296.29 264.142C295.51 268.942 295.718 285.406 296.247 290.43C297.007 297.649 305.532 295.938 310.621 295.942L328.978 295.936C331.923 295.919 334.331 295.172 334.94 291.991C335.934 286.793 335.475 271.068 335.325 265.113C335.141 257.857 325.97 259.533 321.093 259.54L303.209 259.572ZM362.241 259.572C358.771 259.672 355.489 259.804 354.956 263.841C354.162 269.841 354.533 283.513 354.835 289.785C355.225 297.884 363.759 295.986 369.474 295.972L388.063 295.936C389.217 295.971 390.369 296.033 391.522 295.936C396.734 291.864 394.696 284.702 394.692 278.278C394.689 271.281 397.623 260.071 388.606 259.589C380.28 259.144 370.714 259.567 362.241 259.572ZM121.515 259.572C114.23 261.819 116.974 289.457 117.96 292.181C120.049 297.954 146.587 296.133 153.069 295.936C159.641 292.14 157.969 270.848 157.203 264.564C156.399 257.969 147.39 259.56 142.718 259.559C135.665 259.557 128.561 259.777 121.515 259.572ZM121.515 317.785C120.065 318.454 118.341 319.413 117.812 321.047C117.172 323.021 117.22 347.067 117.559 350.17C118.29 356.854 132.846 354.498 137.242 354.498C142.472 354.499 147.855 354.758 153.069 354.476C154.817 353.593 155.976 352.735 156.646 350.831C157.626 348.044 160.096 319.822 152.996 318.034C150.585 317.426 124.898 317.582 121.515 317.785ZM181.364 317.785C173.268 321.224 175.83 341.121 176.695 348.749C177.649 357.161 189.585 354.508 195.403 354.471L320.191 354.47C323.669 354.491 327.51 354.982 330.923 354.476C337.501 350.373 335.251 342.481 335.26 335.91C335.283 320.283 338.609 317.715 320.624 317.772L189.271 317.762C186.668 317.755 183.954 317.57 181.364 317.785ZM368.347 317.785C365.111 317.857 358.41 317.166 356.212 319.854C354.148 322.378 352.921 350.675 357.754 353.615C360.313 355.172 377.318 354.473 381.622 354.476C386.048 354.333 393.561 355.847 394.455 349.796C395.207 344.701 395.082 327.803 394.616 322.434C394.113 316.631 386.218 317.744 382.186 317.751L368.347 317.785Z"
    />
	<path
        fill="#EC7772"
        transform="scale(2 2)"
        d="M152.045 238.514L131.999 238.504C127.02 238.515 118.456 240.48 117.586 233.42C117.004 228.702 117.027 210.274 117.707 205.852C118.164 202.886 120.239 201.467 123.145 201.167C131.455 200.626 140.014 201.238 148.359 201.095C159.751 200.899 157.259 207.011 157.226 215.563C157.2 221.939 157.319 228.324 157.207 234.699C155.969 236.936 154.689 238.097 152.045 238.514Z"
    />
	<path
        fill="#F8D180"
        transform="scale(2 2)"
        d="M190.312 238.514C172.531 239.102 176.647 235.561 176.491 217.967C176.367 204.04 173.571 201.151 189.592 201.151L203.328 201.167C211.053 200.99 216.277 199.816 216.483 209.103C216.592 214.051 217.19 230.193 216.15 234.375C214.818 239.734 208.349 238.546 204.212 238.543L190.312 238.514Z"
    />
	<path
        fill="#F8D180"
        transform="scale(2 2)"
        d="M259.312 238.514C236.43 238.443 236.454 242.337 236.46 220.054C236.466 201.312 234.211 201.014 253.338 201.167C278.226 201.304 276.035 198.04 276.029 223.348C276.025 239.587 277.078 238.676 259.312 238.514Z"
    />
	<path
        fill="#83C593"
        transform="scale(2 2)"
        d="M372.375 238.514C364.453 238.469 354.956 241.451 354.79 230.755C354.719 226.114 354.28 208.638 355.066 205.316C356.581 198.923 372.044 201.149 376.92 201.167C381.769 201.21 386.687 200.825 391.522 201.167C396.238 205.231 394.692 217.346 394.689 223.04C394.676 243.253 391.588 238.548 372.375 238.514Z"
    />
	<path
        fill="#F8D180"
        transform="scale(2 2)"
        d="M330.923 238.514C326.758 238.743 301.873 238.841 299.519 237.991C293.491 235.813 295.628 212.055 296.133 206.635C296.39 203.874 297.958 202.187 300.525 201.167C306.458 201.075 312.406 201.175 318.34 201.178C323.253 201.18 332.598 199.361 334.713 205.312C335.866 208.556 338.138 235.999 330.923 238.514Z"
    />
	<path
        fill="#65AEEC"
        transform="scale(2 2)"
        d="M211.94 295.936C207.02 296.263 201.862 295.957 196.917 295.961C173.253 295.98 176.64 297.468 176.55 275.648C176.529 270.308 174.335 261.153 181.364 259.572C188.17 258.975 203.307 259.074 210.412 259.506C214.633 259.763 216.141 261.913 216.44 265.765C216.981 272.725 219.715 293.485 211.94 295.936Z"
    />
	<path
        fill="#65AEEC"
        transform="scale(2 2)"
        d="M270.175 295.936L251.986 295.92C247.386 295.928 237.595 297.554 236.519 291.071C235.873 287.179 236.187 268.905 236.605 265.333C237.06 261.432 238.579 259.961 242.546 259.572C250.847 259.346 259.193 259.64 267.503 259.528C277.65 259.392 276.056 266.247 276.047 273.714L276.023 291.702C274.697 294.054 272.888 295.46 270.175 295.936Z"
    />
	<path
        fill="#65AEEC"
        transform="scale(2 2)"
        d="M328.978 295.936L310.621 295.942C305.532 295.938 297.007 297.649 296.247 290.43C295.718 285.406 295.51 268.942 296.29 264.142C296.906 260.358 299.773 259.743 303.209 259.572L321.093 259.54C325.97 259.533 335.141 257.857 335.325 265.113C335.475 271.068 335.934 286.793 334.94 291.991C334.331 295.172 331.923 295.919 328.978 295.936Z"
    />
	<path
        fill="#65AEEC"
        transform="scale(2 2)"
        d="M388.063 295.936L369.474 295.972C363.759 295.986 355.225 297.884 354.835 289.785C354.533 283.513 354.162 269.841 354.956 263.841C355.489 259.804 358.771 259.672 362.241 259.572C370.714 259.567 380.28 259.144 388.606 259.589C397.623 260.071 394.689 271.281 394.692 278.278C394.696 284.702 396.734 291.864 391.522 295.936C390.369 296.033 389.217 295.971 388.063 295.936Z"
    />
	<path
        fill="#F8D180"
        transform="scale(2 2)"
        d="M153.069 295.936C146.587 296.133 120.049 297.954 117.96 292.181C116.974 289.457 114.23 261.819 121.515 259.572C128.561 259.777 135.665 259.557 142.718 259.559C147.39 259.56 156.399 257.969 157.203 264.564C157.969 270.848 159.641 292.14 153.069 295.936Z"
    />
	<path
        fill="#F09850"
        transform="scale(2 2)"
        d="M153.069 354.476C147.855 354.758 142.472 354.499 137.242 354.498C132.846 354.498 118.29 356.854 117.559 350.17C117.22 347.067 117.172 323.021 117.812 321.047C118.341 319.413 120.065 318.454 121.515 317.785C124.898 317.582 150.585 317.426 152.996 318.034C160.096 319.822 157.626 348.044 156.646 350.831C155.976 352.735 154.817 353.593 153.069 354.476Z"
    />
	<path
        fill="#4C5E75"
        transform="scale(2 2)"
        d="M330.923 354.476C327.51 354.982 323.669 354.491 320.191 354.47L195.403 354.471C189.585 354.508 177.649 357.161 176.695 348.749C175.83 341.121 173.268 321.224 181.364 317.785C183.954 317.57 186.668 317.755 189.271 317.762L320.624 317.772C338.609 317.715 335.283 320.283 335.26 335.91C335.251 342.481 337.501 350.373 330.923 354.476Z"
    />
	<path
        fill="#F09850"
        transform="scale(2 2)"
        d="M381.622 354.476C377.318 354.473 360.313 355.172 357.754 353.615C352.921 350.675 354.148 322.378 356.212 319.854C358.41 317.166 365.111 317.857 368.347 317.785L382.186 317.751C386.218 317.744 394.113 316.631 394.616 322.434C395.082 327.803 395.207 344.701 394.455 349.796C393.561 355.847 386.048 354.333 381.622 354.476Z"
    />
</svg>
